<?xml version="1.0" standalone="no"?>
<!DOCTYPE svg PUBLIC "-//W3C//DTD SVG 20010904//EN"
 "http://www.w3.org/TR/2001/REC-SVG-20010904/DTD/svg10.dtd">
<svg version="1.0" xmlns="http://www.w3.org/2000/svg"
 width="840.000000pt" height="840.000000pt" viewBox="0 0 840.000000 840.000000"
 preserveAspectRatio="xMidYMid meet">
<metadata>
Created by potrace 1.11, written by Peter Selinger 2001-2013
</metadata>
<g transform="translate(0.000000,840.000000) scale(0.100000,-0.100000)"
fill="#000000" stroke="none">
<path d="M4160 7325 c-340 -43 -669 -142 -951 -286 -145 -75 -260 -161 -376
-282 -244 -255 -390 -593 -439 -1011 -13 -112 -15 -193 -11 -391 8 -312 35
-551 82 -725 8 -30 15 -83 15 -117 0 -56 2 -63 20 -63 11 0 20 -5 20 -10 0 -6
16 -55 36 -108 50 -134 141 -314 219 -432 l65 -99 0 -270 0 -271 -39 -24 c-74
-47 -220 -125 -581 -311 -201 -103 -414 -215 -475 -248 -269 -148 -419 -269
-473 -384 l-27 -58 -3 -437 -3 -438 1562 0 1561 0 44 -50 c94 -103 237 -191
381 -232 103 -30 322 -32 423 -5 83 22 195 76 269 127 l57 40 133 0 133 0 47
-34 c99 -73 228 -126 355 -147 93 -14 256 -7 341 16 270 74 491 290 577 565
20 65 23 95 23 230 0 135 -3 165 -23 230 -100 318 -371 547 -692 586 -30 3
-74 12 -97 20 -23 7 -85 20 -138 29 -157 25 -403 128 -670 280 -109 61 -313
192 -357 228 -16 13 -18 39 -18 287 l0 273 49 76 c100 156 178 319 236 489 15
45 31 82 35 82 4 0 10 21 13 48 3 26 17 96 31 156 43 187 60 329 86 755 23
356 -33 788 -127 981 -44 91 -148 199 -238 247 -93 49 -224 84 -342 90 -98 6
-103 7 -103 28 0 42 71 166 134 232 35 39 105 95 166 136 58 38 106 72 108 76
4 13 -258 91 -373 112 -149 27 -503 34 -665 14z m1050 -1720 l161 -340 -18
-75 -18 -75 -68 -3 -68 -3 -79 66 -79 65 -440 0 -440 0 -68 -60 c-62 -54 -72
-60 -113 -60 -41 0 -51 6 -113 60 l-68 60 -441 0 -440 0 -79 -65 -78 -66 -68
3 -68 3 -17 68 c-38 154 -51 117 148 437 97 157 178 287 179 288 2 2 50 -8
107 -22 434 -106 946 -146 1308 -102 190 23 408 69 563 120 72 23 133 42 133
42 1 -1 75 -154 164 -341z m-1395 -565 l70 -60 94 0 94 0 73 60 72 60 387 0
386 0 78 -65 79 -65 97 0 c73 0 96 -3 93 -12 -3 -9 -44 -14 -139 -18 l-134 -5
-3 -40 c-6 -98 -25 -175 -52 -219 -48 -76 -58 -78 -323 -74 -215 3 -236 5
-280 25 -73 34 -175 142 -226 241 l-42 82 -161 -2 -161 -3 -41 -80 c-54 -108
-157 -213 -239 -243 -53 -20 -77 -22 -280 -22 -202 0 -225 2 -254 19 -59 37
-98 136 -106 271 l-2 45 -134 5 c-95 4 -136 9 -139 18 -3 9 21 12 95 12 l98 1
75 64 75 64 390 0 390 1 70 -60z m271 -292 c61 -99 165 -198 258 -244 l80 -39
264 -3 c255 -3 265 -3 309 19 91 44 160 138 187 257 l13 57 66 3 c54 2 68 0
73 -13 18 -47 -93 -410 -180 -587 -213 -437 -566 -764 -1008 -934 -113 -44
-153 -44 -276 2 -615 230 -1044 719 -1213 1384 -40 160 -42 152 38 148 l68 -3
7 -45 c4 -25 24 -78 44 -118 39 -80 105 -143 172 -163 24 -7 127 -9 293 -7
l255 3 80 39 c93 46 197 145 258 244 l37 62 69 0 69 0 37 -62z m-968 -1248
c210 -191 477 -348 750 -439 118 -39 175 -40 284 -3 258 89 523 247 724 435
40 37 75 67 78 67 3 0 6 -69 6 -153 0 -153 0 -154 -28 -193 -42 -57 -142 -146
-211 -189 -298 -180 -805 -214 -1197 -79 -163 56 -323 153 -435 265 l-59 59 0
150 c0 83 3 150 6 150 3 0 40 -32 82 -70z m-124 -467 c205 -190 502 -314 846
-354 129 -14 402 -7 520 15 276 50 533 178 669 333 l41 46 72 -50 c111 -76
285 -178 441 -259 l142 -73 -440 -3 -440 -3 -98 -34 c-242 -84 -433 -274 -521
-519 -30 -85 -31 -91 -31 -262 1 -152 4 -183 23 -240 11 -35 20 -65 18 -67 -2
-2 -2144 -4 -2774 -3 l-33 0 3 319 3 319 30 43 c64 90 222 190 645 409 492
255 687 358 751 398 35 22 66 41 68 41 2 1 31 -25 65 -56z"/>
</g>
</svg>
