<?xml version="1.0" standalone="no"?>
<!DOCTYPE svg PUBLIC "-//W3C//DTD SVG 20010904//EN"
 "http://www.w3.org/TR/2001/REC-SVG-20010904/DTD/svg10.dtd">
<svg version="1.0" xmlns="http://www.w3.org/2000/svg"
 width="800.000000pt" height="800.000000pt" viewBox="0 0 800.000000 800.000000"
 preserveAspectRatio="xMidYMid meet">
<metadata>
Created by potrace 1.11, written by Peter Selinger 2001-2013
</metadata>
<g transform="translate(0.000000,800.000000) scale(0.100000,-0.100000)"
fill="#000000" stroke="none">
<path d="M3978 5368 l-3 -63 -57 -3 -58 -3 0 -399 0 -400 -65 0 -65 0 0 -65 0
-65 -100 0 -100 0 0 -60 0 -60 -85 0 -85 0 0 -65 0 -65 -65 0 -65 0 0 -60 0
-60 -130 0 -130 0 0 60 0 60 -60 0 -60 0 0 65 0 65 -65 0 -65 0 0 125 0 126
-57 -3 -58 -3 0 -370 0 -370 63 -3 62 -3 0 -59 0 -59 63 -3 62 -3 1 -60 1 -60
61 -3 61 -3 3 -62 3 -62 57 -3 57 -3 3 -57 3 -57 63 -3 62 -3 0 -249 0 -250
120 0 120 0 0 60 0 60 -60 0 -60 0 0 65 0 65 60 0 59 0 3 63 3 62 63 3 62 3 0
59 0 60 65 0 65 0 0 -60 0 -59 63 -3 62 -3 3 -187 2 -188 120 0 120 0 0 60 0
60 -65 0 -65 0 0 250 0 249 63 3 62 3 3 63 3 62 59 0 60 0 0 90 0 90 65 0 65
0 0 225 0 226 63 -3 62 -3 3 -62 3 -63 59 0 60 0 0 125 0 125 -125 0 -125 0 0
124 c0 106 2 125 17 130 9 4 120 6 247 6 l231 -2 3 56 3 56 -191 0 -190 0 0
65 0 65 315 0 315 0 0 275 0 274 -62 3 -63 3 -3 63 -3 62 -494 0 -494 0 -3
-62z m250 -180 l-3 -63 -62 -3 -63 -3 0 66 0 65 65 0 66 0 -3 -62z"/>
<path d="M1980 3215 l0 -35 495 0 495 0 0 35 0 35 -495 0 -495 0 0 -35z"/>
<path d="M4237 3243 c-4 -3 -7 -19 -7 -35 l0 -28 871 0 870 0 -3 33 -3 32
-861 3 c-473 1 -864 -1 -867 -5z"/>
<path d="M5410 3025 c0 -25 0 -25 95 -25 95 0 95 0 95 25 0 25 0 25 -95 25
-95 0 -95 0 -95 -25z"/>
<path d="M2358 2970 c-3 -16 -2 -32 0 -35 3 -3 59 -5 124 -5 l119 0 -3 33 -3
32 -116 3 -117 3 -4 -31z"/>
<path d="M4535 2840 c0 -27 3 -30 33 -30 29 0 32 3 32 30 0 27 -3 30 -32 30
-30 0 -33 -3 -33 -30z"/>
<path d="M1980 2775 l0 -25 120 0 120 0 0 25 0 25 -120 0 -120 0 0 -25z"/>
<path d="M2854 2778 c3 -20 10 -23 59 -26 55 -3 57 -2 57 23 0 24 -2 25 -60
25 -56 0 -60 -1 -56 -22z"/>
<path d="M4980 2775 l0 -25 120 0 120 0 0 25 0 25 -120 0 -120 0 0 -25z"/>
</g>
</svg>
