<?xml version="1.0" standalone="no"?>
<!DOCTYPE svg PUBLIC "-//W3C//DTD SVG 20010904//EN"
 "http://www.w3.org/TR/2001/REC-SVG-20010904/DTD/svg10.dtd">
<svg version="1.0" xmlns="http://www.w3.org/2000/svg"
 width="250.000000pt" height="250.000000pt" viewBox="0 0 250.000000 250.000000"
 preserveAspectRatio="xMidYMid meet">
<metadata>
Created by potrace 1.11, written by Peter Selinger 2001-2013
</metadata>
<g transform="translate(0.000000,250.000000) scale(0.100000,-0.100000)"
fill="#000000" stroke="none">
<path d="M1080 1690 l0 -29 98 -3 97 -3 3 -33 c3 -29 6 -33 30 -30 22 2 28 9
30 36 l3 32 64 0 64 0 3 -32 c3 -29 6 -33 33 -33 27 0 30 3 30 30 0 27 -4 30
-32 33 -29 3 -33 7 -33 33 l0 29 -195 0 -195 0 0 -30z"/>
<path d="M947 1653 c-4 -3 -7 -19 -7 -35 0 -24 -4 -28 -30 -28 -27 0 -30 -3
-30 -30 0 -29 0 -29 -67 -32 l-68 -3 -3 -32 c-3 -29 -7 -33 -33 -33 l-29 0 0
-64 c0 -35 -3 -77 -6 -93 -4 -21 -1 -35 11 -46 9 -9 14 -21 10 -27 -3 -5 2
-17 12 -27 43 -44 113 -153 113 -177 0 -27 72 -105 108 -117 21 -6 44 -17 52
-23 8 -7 39 -20 68 -30 73 -25 254 -17 286 13 41 36 64 42 177 40 61 -1 114 3
118 7 3 5 15 14 26 20 21 11 76 86 69 93 -2 2 1 10 8 18 6 8 12 43 12 78 1 64
1 64 31 67 26 3 30 8 33 36 3 31 2 32 -32 32 -32 0 -35 3 -38 33 -3 28 -7 32
-35 35 l-32 3 -3 97 -3 97 -30 5 c-24 4 -31 11 -33 33 -3 23 -8 27 -33 27 -26
0 -29 -3 -29 -30 0 -28 3 -30 35 -30 l36 0 -3 -102 -3 -103 -130 0 -130 0 -3
-33 c-3 -29 -6 -32 -39 -32 -33 0 -35 -2 -31 -30 5 -30 -6 -40 -43 -40 -14 0
-19 -7 -19 -30 0 -27 3 -30 29 -30 26 0 30 -4 33 -32 3 -29 7 -33 36 -36 28
-3 32 -7 32 -33 l0 -29 -165 0 -165 0 0 30 0 30 -65 0 -65 0 0 35 0 35 65 0
65 0 0 30 0 29 -97 3 -98 3 -3 33 c-3 29 -6 32 -38 32 l-34 0 0 100 0 100 135
0 135 0 0 -30 c0 -27 3 -30 30 -30 27 0 30 3 30 30 0 27 -3 30 -30 30 -27 0
-30 3 -30 30 0 28 -3 30 -35 30 -33 0 -35 2 -35 35 l0 35 65 0 65 0 0 35 0 35
-58 0 c-32 0 -62 -3 -65 -7z m781 -426 l3 -27 -193 2 c-206 3 -195 0 -189 48
1 7 66 9 189 8 l187 -3 3 -28z m-398 -67 c0 -25 -4 -30 -25 -30 -21 0 -25 5
-25 30 0 25 4 30 25 30 21 0 25 -5 25 -30z m330 -65 l0 -25 -159 0 -158 0 4
24 5 24 154 1 154 2 0 -26z"/>
<path d="M1210 1495 l0 -95 30 0 30 0 0 95 0 95 -30 0 -30 0 0 -95z"/>
<path d="M1470 1460 l0 -60 33 0 32 0 -3 60 c-4 59 -4 60 -33 60 -29 0 -29 0
-29 -60z"/>
<path d="M1080 1325 l0 -65 30 0 30 0 0 65 0 65 -30 0 -30 0 0 -65z"/>
<path d="M1274 1360 c0 -27 3 -30 33 -30 30 0 33 3 33 30 0 27 -3 30 -33 30
-30 0 -33 -3 -33 -30z"/>
<path d="M1010 1230 c0 -27 3 -30 30 -30 27 0 30 3 30 30 0 27 -3 30 -30 30
-27 0 -30 -3 -30 -30z"/>
<path d="M440 719 c0 -5 5 -7 10 -4 6 3 10 8 10 11 0 2 -4 4 -10 4 -5 0 -10
-5 -10 -11z"/>
<path d="M1930 719 c0 -5 5 -7 10 -4 6 3 10 8 10 11 0 2 -4 4 -10 4 -5 0 -10
-5 -10 -11z"/>
<path d="M427 703 l-27 -4 27 -50 c55 -102 169 -176 286 -187 57 -5 60 -4 45
11 -12 13 -28 15 -62 11 -74 -8 -170 43 -232 125 -36 46 -36 51 -10 55 9 1 16
5 16 9 0 4 0 14 0 22 0 8 -3 14 -7 14 -5 -1 -20 -4 -36 -6z"/>
<path d="M1965 690 c-11 -17 4 -29 36 -28 21 1 29 6 27 16 -3 18 -53 27 -63
12z"/>
<path d="M2043 653 c-7 -2 -13 -11 -13 -19 0 -8 -6 -14 -12 -15 -55 -3 -83
-24 -49 -37 21 -8 22 -9 5 -23 -13 -11 -18 -11 -21 -1 -6 17 -33 15 -33 -3 0
-8 -12 -18 -26 -21 -16 -4 -23 -12 -20 -20 3 -7 -3 -18 -12 -24 -14 -9 -12
-10 8 -4 14 3 39 15 57 26 34 20 133 124 133 139 0 5 -1 9 -2 8 -2 0 -9 -3
-15 -6z"/>
<path d="M485 641 c-3 -5 0 -13 5 -16 15 -9 60 3 60 15 0 13 -57 13 -65 1z"/>
<path d="M570 595 c0 -9 9 -15 23 -15 14 0 24 6 24 15 0 9 -10 15 -24 15 -14
0 -23 -6 -23 -15z"/>
<path d="M657 563 c-10 -9 -9 -63 1 -63 5 0 9 16 10 35 1 36 0 40 -11 28z"/>
<path d="M1790 560 c-14 -5 -18 -8 -9 -9 9 -1 30 -4 46 -7 22 -4 32 -2 36 10
5 12 0 16 -21 15 -15 -1 -38 -5 -52 -9z"/>
<path d="M1578 473 c6 -2 18 -2 25 0 6 3 1 5 -13 5 -14 0 -19 -2 -12 -5z"/>
<path d="M1818 473 c7 -3 16 -2 19 1 4 3 -2 6 -13 5 -11 0 -14 -3 -6 -6z"/>
<path d="M1738 463 c12 -2 32 -2 45 0 12 2 2 4 -23 4 -25 0 -35 -2 -22 -4z"/>
<path d="M1013 453 c125 -2 329 -2 455 0 125 1 22 2 -228 2 -250 0 -353 -1
-227 -2z"/>
</g>
</svg>
